<?xml version="1.0" standalone="no"?>
<!DOCTYPE svg PUBLIC "-//W3C//DTD SVG 20010904//EN"
 "http://www.w3.org/TR/2001/REC-SVG-20010904/DTD/svg10.dtd">
<svg version="1.0" xmlns="http://www.w3.org/2000/svg"
 width="475.000000pt" height="475.000000pt" viewBox="0 0 475.000000 475.000000"
 preserveAspectRatio="xMidYMid meet">
<metadata>
Created by potrace 1.14, written by Peter Selinger 2001-2017
</metadata>
<g transform="translate(0.000000,475.000000) scale(0.100000,-0.100000)"
fill="#000000" stroke="none">
<path d="M0 2380 l0 -1210 2375 0 2375 0 0 1210 0 1210 -2375 0 -2375 0 0
-1210z m508 943 c-3 -41 -6 -48 -26 -51 -26 -4 -55 15 -46 30 4 6 10 6 17 -1
20 -20 27 -12 27 29 0 30 4 40 16 40 12 0 14 -10 12 -47z m57 -3 c0 -26 -5
-45 -12 -47 -9 -3 -13 10 -13 47 0 37 4 50 13 48 7 -3 12 -22 12 -48z m75 23
l13 -28 9 28 c14 39 42 32 46 -12 5 -48 -4 -67 -24 -50 -12 10 -17 10 -23 0
-6 -10 -11 -9 -24 3 -13 14 -16 14 -21 0 -10 -26 -26 -5 -26 35 0 58 27 71 50
24z m164 12 c3 -8 10 -15 16 -15 5 0 10 7 10 15 0 8 7 15 15 15 8 0 15 -7 15
-15 0 -8 5 -15 10 -15 6 0 13 7 16 15 7 18 24 20 24 3 0 -33 -22 -88 -35 -88
-8 0 -15 7 -15 15 0 8 -5 15 -10 15 -6 0 -13 -7 -16 -15 -15 -38 -54 14 -54
73 0 17 17 15 24 -3z m206 5 c0 -5 -9 -10 -20 -10 -11 0 -20 -4 -20 -10 0 -5
7 -10 15 -10 8 0 15 -4 15 -10 0 -5 -7 -10 -15 -10 -8 0 -15 -4 -15 -10 0 -5
9 -10 20 -10 11 0 20 -4 20 -10 0 -5 -18 -10 -40 -10 l-40 0 0 50 0 50 40 0
c22 0 40 -4 40 -10z m75 -12 l20 -23 3 23 c2 12 10 22 18 22 10 0 14 -13 14
-44 0 -54 -14 -65 -44 -37 -23 22 -23 22 -29 2 -10 -40 -27 -22 -27 29 0 56
13 64 45 28z m165 1 c25 -46 -12 -88 -67 -77 -18 3 -30 55 -19 84 9 23 73 18
86 -7z m62 -16 c3 -33 7 -38 30 -41 24 -3 27 0 30 35 3 36 5 38 41 41 21 2 37
-1 37 -7 0 -6 -9 -11 -20 -11 -11 0 -20 -4 -20 -10 0 -5 7 -10 15 -10 8 0 15
-4 15 -10 0 -5 -7 -10 -15 -10 -8 0 -15 -4 -15 -10 0 -5 9 -10 20 -10 11 0 20
-4 20 -9 0 -6 -38 -10 -85 -10 l-85 1 0 49 c0 36 4 49 14 49 10 0 16 -13 18
-37z m256 -15 c3 -47 -12 -66 -24 -33 -8 20 -30 19 -38 -1 -10 -26 -26 -5 -26
35 0 47 6 53 50 49 34 -3 35 -4 38 -50z m762 -94 c0 -8 -5 -24 -11 -35 -22
-42 -6 -48 68 -28 151 43 375 42 533 -2 164 -46 302 -150 365 -274 28 -56 30
-67 29 -170 -1 -89 -5 -121 -23 -167 -27 -70 -93 -139 -150 -158 -23 -7 -40
-18 -38 -23 1 -5 23 -16 47 -24 25 -9 64 -29 87 -46 24 -17 46 -28 49 -25 5 6
31 72 104 268 237 636 251 672 263 688 7 9 57 12 188 12 151 0 179 -2 179 -15
0 -8 -29 -92 -64 -187 -36 -95 -63 -175 -60 -179 6 -11 54 16 102 56 54 47 87
103 108 185 9 36 21 68 28 72 20 13 371 9 384 -4 9 -9 12 -214 12 -859 0 -466
-3 -854 -6 -863 -5 -14 -38 -16 -260 -16 l-254 0 -2 503 -3 502 -132 3 c-73 1
-133 6 -133 10 0 7 39 112 107 290 20 51 33 95 30 98 -3 3 -27 -1 -54 -10 -26
-9 -87 -19 -136 -22 -78 -6 -88 -9 -93 -28 -2 -12 -3 -91 -2 -176 l3 -155 58
-3 c35 -2 60 -8 63 -16 5 -13 -5 -41 -191 -536 -59 -157 -126 -337 -150 -400
l-43 -115 -187 -3 -187 -2 6 24 c3 13 9 31 12 40 8 21 -15 21 -103 -1 -105
-26 -367 -23 -497 5 -249 55 -411 192 -479 407 -9 28 -17 63 -19 78 -6 60 -21
35 -102 -183 -7 -19 -41 -110 -75 -202 l-63 -168 -182 0 c-101 0 -185 3 -188
6 -3 3 1 23 10 45 8 21 13 41 10 44 -2 3 -47 -5 -99 -17 -134 -30 -384 -30
-519 1 -266 60 -444 227 -481 449 -15 98 -32 92 241 92 l240 0 20 -40 c45 -87
129 -132 250 -132 119 0 206 47 252 136 16 32 19 54 16 117 -3 67 -7 83 -33
121 -45 65 -117 98 -215 98 -103 0 -169 -21 -220 -70 l-42 -40 -219 0 c-187 0
-220 2 -225 15 -4 9 20 158 51 333 75 411 115 635 115 645 0 4 270 7 600 7
l600 0 -2 -207 -3 -208 -402 -3 c-372 -2 -402 -4 -407 -20 -15 -50 -44 -197
-40 -204 3 -4 31 5 63 22 84 42 178 61 306 61 128 1 212 -17 302 -62 55 -28
138 -100 177 -154 10 -13 18 -17 24 -10 5 6 67 163 137 350 70 187 140 375
157 418 l29 77 185 0 c160 0 184 -2 184 -16z"/>
<path d="M1195 3340 c-9 -15 5 -52 18 -47 15 5 16 49 0 54 -6 2 -14 -1 -18 -7z"/>
<path d="M1520 3340 c0 -5 5 -10 10 -10 6 0 10 5 10 10 0 6 -4 10 -10 10 -5 0
-10 -4 -10 -10z"/>
<path d="M2195 3088 c-90 -54 -168 -136 -211 -221 -39 -76 -67 -182 -62 -236
l3 -36 83 -3 c45 -2 82 -7 82 -12 0 -5 -4 -19 -10 -32 -41 -97 -160 -423 -160
-438 0 -19 8 -20 209 -20 l209 0 7 -42 c17 -114 60 -178 143 -215 43 -20 69
-25 137 -25 131 0 201 42 226 136 12 44 7 108 -12 149 -7 15 -30 39 -52 54
-38 27 -47 28 -174 31 l-133 4 2 161 3 162 91 -4 c99 -3 204 17 237 47 76 69
57 186 -38 236 -55 29 -189 35 -249 12 -66 -25 -113 -78 -127 -142 l-12 -54
-139 0 c-85 0 -138 4 -138 10 0 5 30 90 66 187 135 361 126 333 106 333 -9 0
-48 -19 -87 -42z"/>
<path d="M1626 2351 c-3 -4 -26 -64 -52 -132 -25 -68 -56 -151 -68 -184 -13
-33 -55 -145 -94 -250 -39 -104 -80 -213 -91 -242 -12 -30 -17 -55 -11 -58 12
-8 122 48 185 95 208 153 279 448 175 723 -20 54 -32 67 -44 48z"/>
<path d="M3216 2083 c-190 -508 -229 -614 -223 -619 11 -12 167 79 221 129
166 154 214 404 115 602 -13 25 -28 50 -35 56 -8 7 -29 -37 -78 -168z"/>
<path d="M1867 2058 c-7 -49 9 -56 27 -13 20 46 20 45 -3 45 -13 0 -20 -9 -24
-32z"/>
</g>
</svg>
